<svg width="595" height="577" viewBox="0 0 595 577" fill="none" xmlns="http://www.w3.org/2000/svg">
<g opacity="0.1" clip-path="url(#clip0_544_425)">
<path d="M593.243 389.989C593.243 389.989 592.251 389.462 592.251 389.311C592.862 385.922 590.112 384.641 588.356 382.608C586.905 380.876 585.835 380.574 584.003 381.252C579.726 382.834 578.428 386.524 577.206 390.366C575.831 394.659 573.234 398.349 569.492 400.985C565.903 403.546 562.008 405.655 557.502 408.441C557.349 406.483 557.044 405.052 557.197 403.621C557.426 401.738 558.342 399.855 558.342 397.972C558.342 392.7 561.321 389.01 564.223 385.093C565.826 382.909 567.43 380.574 568.499 378.089C569.874 374.926 568.118 372.967 564.757 373.344C564.375 373.344 563.688 373.645 563.612 373.495C561.626 370.633 558.648 373.419 556.28 372.214C555.669 371.913 553.836 373.043 553.302 374.022C552.691 375.076 552.614 376.658 552.92 377.863C553.836 381.704 554.6 385.545 556.127 389.16C558.495 394.734 555.975 399.705 554.753 404.826C554.6 405.504 553.378 405.956 553.225 406.107C551.393 404.977 549.865 403.245 548.49 403.395C545.665 403.546 544.137 406.107 544.214 408.592C544.366 413.412 545.283 418.157 545.818 422.902C545.97 424.559 546.352 426.517 545.665 427.873C542.992 433.296 537.875 443.238 528.176 454.008C516.797 468.845 503.89 482.252 490.144 494.679C498.85 483.306 506.181 470.879 511.986 457.397C521.226 436.083 525.809 413.412 525.809 389.462C525.809 366.942 521.303 345.251 512.291 324.388C503.279 303.526 490.907 285.073 475.099 269.031C459.29 252.988 440.35 240.184 418.279 230.544C396.132 220.979 366.271 216.384 362.835 216.912C375.436 210.208 386.433 200.417 395.597 187.463C404.838 174.508 409.42 158.993 409.42 140.767C409.42 130.674 407.74 120.732 404.304 110.941C400.867 101.15 394.91 92.2627 386.433 84.3544C377.956 76.4462 366.653 69.969 352.525 64.9228C338.396 59.8766 320.678 57.3911 299.295 57.3911H263.553V559.828C293.185 562.69 317.7 564.347 337.174 564.874C356.572 565.326 390.633 560.957 413.697 551.543C436.761 542.204 456.541 529.475 473.113 513.433C475.633 511.023 478.001 508.537 480.292 505.976L481.972 504.847C487.7 500.403 493.504 496.11 499.308 491.817C500.148 491.139 508.931 489.482 515.957 485.792C517.942 484.737 521.608 482.478 523.288 481.047C526.267 478.411 529.398 475.925 532.453 473.364C532.911 472.988 533.446 472.461 533.98 472.31C537.646 471.707 541.312 471.255 544.977 470.728C546.963 470.427 549.101 470.427 551.011 469.749C555.593 468.092 555.975 465.305 552.844 462.669C552.691 460.335 553.225 457.397 552.385 456.945C549.789 455.59 547.65 453.782 545.359 452.05C544.825 451.673 543.145 452.2 542.304 452.803C539.479 454.46 538.104 457.171 537.646 460.335C537.34 462.293 536.882 464.025 534.973 465.155C534.057 465.682 533.216 466.812 533.064 467.791C532.453 471.18 529.703 472.686 527.489 474.72C523.899 477.959 521.761 480.369 515.651 483.683C511.68 485.867 505.418 487.449 501.37 487.976C501.37 487.976 501.676 487.449 501.981 487.072C514.888 473.741 527.26 459.883 538.257 444.895C542.686 438.869 546.658 432.769 548.796 425.463C549.331 423.505 552.385 422.149 554.371 420.567C556.127 419.212 558.266 418.233 559.87 416.651C562.619 414.015 562.161 411.831 558.8 409.797C563.917 406.709 568.729 403.32 573.922 400.835C577.129 399.328 581.024 399.403 584.614 398.575C587.363 397.897 590.189 397.144 592.709 395.864C595.534 394.357 595.534 392.022 593.167 390.064L593.243 389.989ZM342.444 76.7475C358.023 79.6095 370.395 86.8399 379.636 98.288C388.877 109.811 393.459 123.896 393.459 140.691C393.459 158.918 388.495 174.508 378.491 187.387C368.562 200.342 356.496 208.928 342.444 213.296V76.7475ZM407.664 538.212C386.738 546.873 348.706 550.94 342.444 550.413V231.297C348.248 230.845 386.815 234.762 407.664 243.122C428.513 251.482 446.536 262.855 461.581 277.24C476.626 291.626 488.387 308.496 496.941 327.928C505.418 347.36 509.694 367.846 509.694 389.386C509.694 410.927 505.418 431.564 496.941 451.221C488.464 470.879 476.626 488.126 461.581 502.964C446.536 517.801 428.513 529.55 407.664 538.212Z" fill="#41382F"/>
<path d="M205.283 37.5097C207.956 35.0242 206.352 32.2375 206.199 29.3755C206.047 27.0407 205.359 26.0615 203.374 25.5343C198.562 24.2539 195.126 26.6641 191.46 29.3001C187.641 32.0869 182.983 33.5179 178.172 33.4426C173.589 33.4426 168.931 32.84 163.279 32.3881C164.425 30.6558 165.036 29.2248 166.105 28.0951C167.48 26.5888 169.465 25.6096 170.687 23.9527C173.971 19.4337 178.935 18.078 183.899 16.5717C186.725 15.7432 189.551 14.6887 191.995 13.2577C195.202 11.4501 194.973 8.5881 191.765 6.85582C191.384 6.62987 190.696 6.47924 190.696 6.25329C190.849 2.63809 186.496 3.08999 185.274 0.604548C184.969 0.00201549 182.601 -0.148618 181.608 0.303282C180.463 0.830497 179.394 2.11088 178.859 3.31594C177.179 7.15709 175.422 10.9229 174.429 14.99C172.902 21.2413 167.633 23.8774 163.356 27.5679C162.821 28.0198 161.523 27.7185 161.217 27.7185C160.377 25.6096 160.148 23.1995 158.926 22.4463C156.406 20.8647 153.428 22.0698 151.977 24.2539C149.075 28.4717 148.693 28.6976 146.325 33.2166C144.874 35.8527 140.903 40.1457 129.066 45.3426C112.799 52.4223 100.656 55.435 85.7637 63.3432C69.4968 72.0046 55.1393 82.2477 42.7673 94.223C40.9344 96.0306 39.2543 97.9135 37.4977 99.7211C37.4977 95.8046 37.6505 89.8546 39.9416 86.4654C42.0036 83.3021 45.2875 81.0426 47.8841 78.2559C49.4879 76.5236 50.7098 74.3394 53.4591 73.8875C54.2228 73.7369 55.1393 73.0591 55.5975 72.3812C56.5139 70.8749 57.8886 70.4983 59.4924 70.2723C62.0126 69.8958 64.1509 68.8413 65.5256 66.5818C65.9838 65.904 66.442 64.5483 66.1366 64.1717C64.7619 62.3641 63.3109 60.7071 62.1653 58.6736C61.7835 57.9958 59.416 58.4476 57.5831 58.297C55.4447 55.8869 53.23 56.1882 51.8553 59.728C51.3207 61.159 51.3207 62.8913 51.0916 64.473C50.7098 67.335 50.3279 70.197 49.7933 73.0591C49.7933 73.511 49.2588 73.8875 48.9533 74.2641C46.8913 76.6742 44.9057 79.0844 42.7673 81.4192C41.5454 82.7749 39.7125 84.6578 38.4142 85.9382C38.1851 85.8629 37.6505 79.1597 37.2686 76.2977C36.0467 66.8831 36.5049 57.6945 39.9416 48.7318C40.2471 47.9787 40.7053 46.9995 41.3163 46.623C43.3019 45.4179 45.5166 44.5141 47.3495 43.2337C48.7242 42.2546 49.8697 40.8236 50.8625 39.4679C51.168 39.016 50.8625 37.359 50.6334 37.359C48.5714 36.8318 47.8841 33.6685 45.1348 34.6476C44.9057 34.7229 44.4474 34.271 44.142 34.1204C41.6981 32.5388 39.4834 33.4426 38.8724 36.2293C38.6433 37.2837 38.8724 38.4888 38.6433 39.6185C38.1087 43.2337 38.796 46.9242 37.345 50.6147C35.283 55.8116 34.5193 61.385 34.9775 66.9584C35.4358 73.0591 36.1995 79.0844 36.6577 85.185C36.8868 88.3483 35.9703 97.4616 35.5885 101.679C26.5768 111.696 19.1689 122.617 13.5175 134.442C6.49146 149.279 2.97844 164.87 2.97844 181.138C2.97844 200.796 5.80413 217.817 11.3792 232.203C16.9542 246.588 23.9039 259.618 32.1518 271.368C40.3998 283.117 49.2588 294.113 58.7287 304.431C68.1986 314.75 77.0575 325.746 85.3055 337.495C93.5535 349.245 100.503 362.199 106.078 376.283C111.653 390.443 114.479 407.088 114.479 426.218C114.479 447.307 111.577 465.308 105.696 480.145C99.8922 494.982 91.7206 507.56 81.2579 517.879C70.7951 528.197 58.6523 537.084 44.8293 544.465C31.0063 551.922 16.0377 558.7 0 564.951L5.1168 577.153C22.6056 569.998 41.6981 561.336 62.3181 551.244C82.938 541.151 102.26 529.176 120.283 515.318C138.23 501.46 153.351 485.041 165.494 466.061C177.637 447.156 183.747 425.013 183.747 399.556C183.747 377.037 180.921 357.756 175.346 341.713C169.771 325.671 162.668 311.436 154.191 298.933C145.714 286.506 136.55 275.133 126.851 264.815C117.152 254.497 63.3872 213.449 55.5975 165.021C51.7026 140.919 63.0818 107.328 73.7736 93.1686C76.4465 89.6287 80.4942 85.411 85.3055 80.9673C94.2408 80.9673 103.176 80.2894 111.959 78.1806C113.104 77.8793 114.479 78.7831 115.624 78.4818C119.596 77.3521 123.338 79.3856 127.233 79.0844C128.607 79.0091 130.211 78.6325 131.357 77.8793C132.044 77.4274 132.579 75.8458 132.349 75.0926C131.968 73.8875 131.815 73.2097 132.426 72.0046C132.96 71.1008 132.808 68.766 132.426 68.6154C129.6 67.6363 130.669 62.7407 127.08 63.2679C125.094 63.5692 123.109 64.8496 121.505 66.1299C119.214 67.9375 118.068 71.0255 114.861 71.9293C114.097 72.1553 113.333 73.2097 113.028 74.1135C112.341 76.0717 110.813 76.9002 108.98 77.0508C103.023 78.6325 97.7538 79.1597 87.2911 79.235C99.434 68.3141 116.312 56.2635 132.12 48.7318C136.703 46.5476 140.368 44.2881 145.791 40.9742C147.7 39.8445 150.678 40.9742 153.351 40.8236C155.719 40.8236 158.163 41.2002 160.53 40.8236C164.501 40.221 165.571 38.1122 163.967 34.271C170.305 34.7983 176.568 34.8736 182.601 36.0033C186.267 36.6812 189.627 39.2419 193.14 40.6729C195.966 41.8027 198.792 42.9324 201.77 43.3843C205.13 43.9116 206.658 41.878 205.894 38.6394C205.818 38.2628 205.359 37.585 205.436 37.5097H205.283Z" fill="#41382F"/>
</g>
<defs>
<clipPath id="clip0_544_425">
<rect width="595" height="577" fill="white"/>
</clipPath>
</defs>
</svg>
