<svg width="45" height="89" viewBox="0 0 45 89" fill="none" xmlns="http://www.w3.org/2000/svg">
<path d="M33 87V1L44 16.5" stroke="#CC8B6E" stroke-width="0.8" stroke-linejoin="round"/>
<path d="M16.215 32.37C16.215 32.5007 16.159 32.566 16.047 32.566C16.0097 32.566 15.977 32.566 15.949 32.566C15.921 32.5567 15.8977 32.5333 15.879 32.496C15.8697 32.4773 15.8557 32.4353 15.837 32.37C15.8277 32.2953 15.823 32.244 15.823 32.216C15.7763 31.936 15.7063 31.628 15.613 31.292C15.529 30.9467 15.3937 30.6667 15.207 30.452C15.1137 30.34 14.955 30.2653 14.731 30.228C14.507 30.1907 14.2783 30.172 14.045 30.172C13.8117 30.172 13.6297 30.172 13.499 30.172C13.359 30.172 13.1863 30.172 12.981 30.172C12.785 30.172 12.6077 30.2093 12.449 30.284C12.2997 30.3587 12.225 30.508 12.225 30.732C12.225 32.1413 12.2297 33.5553 12.239 34.974C12.2577 36.3833 12.267 37.7973 12.267 39.216C12.267 39.3373 12.3183 39.4307 12.421 39.496C12.5237 39.552 12.6403 39.5893 12.771 39.608C12.9017 39.6267 13.009 39.636 13.093 39.636C13.1677 39.636 13.233 39.636 13.289 39.636C13.3543 39.6267 13.4197 39.622 13.485 39.622C13.5783 39.622 13.625 39.664 13.625 39.748C13.625 39.7853 13.625 39.8413 13.625 39.916C13.625 39.9813 13.5923 40.014 13.527 40.014C13.191 40.014 12.855 40.0093 12.519 40C12.1923 39.9813 11.861 39.972 11.525 39.972C11.077 39.972 10.6197 39.986 10.153 40.014C10.0503 40.014 9.94299 40.0187 9.83099 40.028C9.71899 40.0373 9.61166 40.042 9.50899 40.042C9.42499 40.042 9.38299 39.9907 9.38299 39.888C9.38299 39.776 9.39699 39.706 9.42499 39.678C9.45299 39.65 9.51833 39.636 9.62099 39.636C9.63966 39.636 9.65833 39.6407 9.67699 39.65C9.70499 39.65 9.72366 39.65 9.73299 39.65C9.83566 39.65 9.96633 39.6407 10.125 39.622C10.2837 39.6033 10.4237 39.566 10.545 39.51C10.6757 39.4447 10.741 39.3467 10.741 39.216C10.7503 38.4973 10.755 37.7787 10.755 37.06C10.7643 36.3413 10.769 35.6227 10.769 34.904C10.769 34.1947 10.7643 33.49 10.755 32.79C10.7457 32.0807 10.741 31.3713 10.741 30.662C10.741 30.55 10.6943 30.4473 10.601 30.354C10.517 30.2607 10.4237 30.2093 10.321 30.2C10.237 30.1813 10.1483 30.172 10.055 30.172C9.97099 30.172 9.88233 30.172 9.78899 30.172H8.54299C8.20699 30.172 7.95499 30.256 7.78699 30.424C7.62833 30.5827 7.51633 30.7927 7.45099 31.054C7.38566 31.306 7.32499 31.5673 7.26899 31.838C7.26899 31.8567 7.25499 31.922 7.22699 32.034C7.20833 32.1367 7.18499 32.2393 7.15699 32.342C7.13833 32.4353 7.12433 32.4867 7.11499 32.496C7.07766 32.5427 7.02166 32.566 6.94699 32.566C6.84433 32.566 6.79299 32.5147 6.79299 32.412C6.79299 32.3747 6.79299 32.328 6.79299 32.272C6.80233 32.2067 6.81166 32.132 6.82099 32.048C6.83966 31.8333 6.85366 31.5767 6.86299 31.278C6.88166 30.97 6.89566 30.6853 6.90499 30.424C6.91433 30.3307 6.91899 30.2373 6.91899 30.144C6.91899 30.0507 6.92366 29.9667 6.93299 29.892C6.93299 29.7613 7.01233 29.7053 7.17099 29.724C7.85233 29.7893 8.53833 29.822 9.22899 29.822C9.92899 29.8127 10.6197 29.808 11.301 29.808H12.491C12.8737 29.808 13.2563 29.808 13.639 29.808C14.031 29.7987 14.423 29.7893 14.815 29.78C14.983 29.7707 15.1557 29.766 15.333 29.766C15.5197 29.7567 15.7017 29.752 15.879 29.752C16.0003 29.752 16.0703 29.7987 16.089 29.892C16.0983 29.92 16.1077 30.0227 16.117 30.2C16.1263 30.368 16.1357 30.564 16.145 30.788C16.1543 31.0027 16.159 31.208 16.159 31.404C16.1683 31.5907 16.173 31.7213 16.173 31.796C16.1823 31.8893 16.1917 31.9827 16.201 32.076C16.2103 32.1693 16.215 32.2673 16.215 32.37ZM14.9278 56.848C14.9278 56.3067 14.8671 55.756 14.7458 55.196C14.6338 54.636 14.4471 54.118 14.1858 53.642C13.9245 53.166 13.5745 52.7833 13.1358 52.494C12.6971 52.1953 12.1558 52.046 11.5118 52.046C10.8865 52.046 10.3545 52.2 9.91581 52.508C9.47715 52.816 9.12248 53.2173 8.85181 53.712C8.58115 54.1973 8.38048 54.7247 8.24981 55.294C8.12848 55.854 8.06781 56.3953 8.06781 56.918C8.06781 57.4687 8.12381 58.024 8.23581 58.584C8.34781 59.1347 8.53448 59.6433 8.79581 60.11C9.05715 60.5673 9.40715 60.936 9.84581 61.216C10.2938 61.496 10.8491 61.636 11.5118 61.636C12.1745 61.636 12.7251 61.4913 13.1638 61.202C13.6025 60.9127 13.9478 60.5347 14.1998 60.068C14.4611 59.592 14.6478 59.074 14.7598 58.514C14.8718 57.954 14.9278 57.3987 14.9278 56.848ZM16.4538 56.806C16.4538 57.842 16.2625 58.7567 15.8798 59.55C15.5065 60.334 14.9511 60.9453 14.2138 61.384C13.4858 61.8227 12.5851 62.042 11.5118 62.042C10.4665 62.042 9.57048 61.832 8.82381 61.412C8.08648 60.9827 7.52181 60.3853 7.12981 59.62C6.73781 58.8453 6.54181 57.9447 6.54181 56.918C6.54181 56.1993 6.65848 55.5227 6.89181 54.888C7.12515 54.2533 7.46115 53.6933 7.89981 53.208C8.33848 52.7227 8.86115 52.3447 9.46781 52.074C10.0838 51.794 10.7651 51.654 11.5118 51.654C12.5571 51.654 13.4438 51.8733 14.1718 52.312C14.9091 52.7413 15.4738 53.3433 15.8658 54.118C16.2578 54.8833 16.4538 55.7793 16.4538 56.806ZM14.2158 76.272C14.2158 75.5253 13.9825 74.984 13.5158 74.648C13.0585 74.3027 12.4845 74.13 11.7938 74.13C11.6072 74.13 11.4158 74.1347 11.2198 74.144C11.0238 74.144 10.8278 74.144 10.6318 74.144C10.5385 74.144 10.4452 74.172 10.3518 74.228C10.2585 74.284 10.2118 74.3633 10.2118 74.466V78.442C10.4172 78.5913 10.6692 78.68 10.9678 78.708C11.2665 78.736 11.5325 78.75 11.7658 78.75C12.5685 78.75 13.1752 78.5353 13.5858 78.106C14.0058 77.6767 14.2158 77.0653 14.2158 76.272ZM15.7558 76.23C15.7558 76.8367 15.6392 77.3313 15.4058 77.714C15.1818 78.0967 14.8785 78.3953 14.4958 78.61C14.1132 78.8247 13.6792 78.974 13.1938 79.058C12.7178 79.1327 12.2278 79.17 11.7238 79.17C11.4718 79.17 11.2198 79.156 10.9678 79.128C10.7158 79.1 10.4685 79.0673 10.2258 79.03V83.216C10.2258 83.356 10.2865 83.4493 10.4078 83.496C10.5292 83.5427 10.6645 83.566 10.8138 83.566C10.9632 83.566 11.0845 83.566 11.1778 83.566C11.2338 83.566 11.2898 83.566 11.3458 83.566C11.4112 83.5567 11.4718 83.552 11.5278 83.552C11.6118 83.552 11.6538 83.5893 11.6538 83.664C11.6538 83.7853 11.6445 83.8693 11.6258 83.916C11.6072 83.9533 11.5325 83.972 11.4018 83.972C11.0845 83.972 10.7718 83.9627 10.4638 83.944C10.1558 83.9253 9.84784 83.916 9.53984 83.916C9.2225 83.916 8.9005 83.93 8.57384 83.958C8.2565 83.9767 7.93917 83.986 7.62184 83.986C7.5285 83.986 7.48184 83.9253 7.48184 83.804C7.48184 83.748 7.49117 83.6967 7.50984 83.65C7.5285 83.6033 7.57517 83.58 7.64984 83.58C7.76184 83.58 7.87384 83.5847 7.98584 83.594C8.09784 83.594 8.20984 83.594 8.32184 83.594C8.43384 83.594 8.53184 83.566 8.61584 83.51C8.70917 83.454 8.7605 83.3653 8.76984 83.244C8.7885 83.076 8.79317 82.908 8.78384 82.74C8.78384 82.5627 8.78384 82.39 8.78384 82.222C8.78384 81.886 8.78384 81.55 8.78384 81.214C8.78384 80.8687 8.78384 80.528 8.78384 80.192V77.742C8.78384 77.1913 8.77917 76.6453 8.76984 76.104C8.76984 75.5533 8.76984 75.0073 8.76984 74.466C8.76984 74.298 8.68584 74.2 8.51784 74.172C8.35917 74.1347 8.21917 74.116 8.09784 74.116C8.01384 74.116 7.92984 74.1207 7.84584 74.13C7.76184 74.13 7.6825 74.13 7.60784 74.13C7.5425 74.13 7.50517 74.102 7.49584 74.046C7.49584 73.9807 7.49584 73.9293 7.49584 73.892C7.49584 73.8547 7.50517 73.822 7.52384 73.794C7.5425 73.7567 7.5705 73.738 7.60784 73.738C7.91584 73.738 8.22384 73.7473 8.53184 73.766C8.83984 73.7847 9.1525 73.794 9.46984 73.794C9.95517 73.794 10.4405 73.7847 10.9258 73.766C11.4112 73.7473 11.8965 73.738 12.3818 73.738C12.7738 73.738 13.1658 73.78 13.5578 73.864C13.9592 73.948 14.3232 74.088 14.6498 74.284C14.9858 74.48 15.2518 74.7367 15.4478 75.054C15.6532 75.3713 15.7558 75.7633 15.7558 76.23Z" fill="#CC8B6E"/>
</svg>
