<svg width="590" height="824" viewBox="0 0 590 824" fill="none" xmlns="http://www.w3.org/2000/svg">
<path d="M442.574 0.338018C436.238 116.71 495.147 201.482 497.588 258.312M232.913 622.977C229.175 635.508 206.672 658.106 146.561 648.246C71.4231 635.922 37.0467 571.168 0.307463 581.014C26.0886 571.976 88.6854 556.159 132.823 565.19C176.961 574.222 217.94 607.478 232.913 622.977ZM232.913 622.977C246.713 629.297 283.547 624.069 342.196 576.113M342.196 576.113C368.177 554.869 417.477 511.188 444.144 465C455.475 445.374 464.954 425.711 472.638 406M342.196 576.113C328.451 590.002 318.331 622.499 322.709 676.499C327.087 730.499 366.709 750.499 310.209 822.999M342.196 576.113C444.709 682.499 367.709 810 310.209 822.999M342.196 576.113C342.196 576.113 344.34 640.523 342.196 687.499C339.183 753.499 310.209 822.999 310.209 822.999M497.588 258.312C493.107 277.548 456.751 345.617 353.087 373.397M497.588 258.312C499.72 307.936 491.698 357.114 472.638 406M353.087 373.397C249.423 401.177 231.816 445.096 235.971 463.583C261.137 457.548 319.794 431.062 353.087 373.397ZM472.638 406C476.829 435.727 492.794 489.096 526.873 530.001M526.873 530.001C545.709 546.001 547.709 566.501 588.709 576.113C586.175 560.742 570.261 530.001 526.873 530.001Z" stroke="black"/>
</svg>
