<svg width="578" height="1072" viewBox="0 0 578 1072" fill="none" xmlns="http://www.w3.org/2000/svg">
<path d="M447.743 1071C374.124 925.755 243.642 864.332 200.995 797.271M266.489 171.102C262.258 153.328 273.699 110.263 353.308 80.1989C452.82 42.6186 539.639 96.9576 577.21 59.3773C552.332 88.3242 487.649 151.195 427.942 171.102C368.235 191.01 295.429 179.397 266.489 171.102ZM266.489 171.102C245.379 173.097 204.469 205.155 167.011 304.157M167.011 304.157C150.417 348.014 121.284 435.313 121.284 509.833C121.284 620.035 148.74 715.104 200.995 797.271M167.011 304.157C173.939 277.749 174.492 203.401 121.284 117.271C54.7734 9.60886 11.2087 -0.00146485 0.955933 0.975478M167.011 304.157C5.59145 237.63 31.7087 85.9987 0.955933 0.975478M167.011 304.157C167.011 304.157 126.051 196.374 91.7087 134.499C60.4215 78.1268 0.955933 0.975478 0.955933 0.975478M200.995 797.271C192.98 770.863 189.419 663.099 295.429 557.062M295.429 557.062C401.439 451.025 392.064 385.581 374.124 366.113C347.893 390.998 295.429 464.025 295.429 557.062Z" stroke="black"/>
</svg>
