<svg width="331" height="56" viewBox="0 0 331 56" fill="none" xmlns="http://www.w3.org/2000/svg">
<g clip-path="url(#clip0_81_931)">
<path d="M55.9957 37.1844C55.9957 37.1844 55.902 37.1342 55.902 37.1198C55.9596 36.7966 55.7001 36.6746 55.5343 36.4807C55.3974 36.3155 55.2965 36.2868 55.1234 36.3514C54.7198 36.5022 54.5972 36.8541 54.4819 37.2203C54.3521 37.6297 54.107 37.9816 53.7538 38.2329C53.415 38.4771 53.0474 38.6781 52.6221 38.9438C52.6077 38.7571 52.5788 38.6207 52.5933 38.4842C52.6149 38.3047 52.7014 38.1252 52.7014 37.9456C52.7014 37.443 52.9825 37.0911 53.2564 36.7177C53.4078 36.5094 53.5592 36.2868 53.6601 36.0498C53.7899 35.7482 53.6241 35.5615 53.3069 35.5974C53.2709 35.5974 53.206 35.6261 53.1988 35.6117C53.0114 35.3389 52.7302 35.6046 52.5068 35.4897C52.4491 35.4609 52.2761 35.5687 52.2256 35.662C52.168 35.7626 52.1608 35.9134 52.1896 36.0283C52.2761 36.3945 52.3482 36.7607 52.4923 37.1054C52.7158 37.6368 52.4779 38.1108 52.3626 38.5991C52.3482 38.6638 52.2328 38.7069 52.2184 38.7212C52.0454 38.6135 51.9012 38.4483 51.7715 38.4627C51.5048 38.4771 51.3606 38.7212 51.3678 38.9582C51.3822 39.4178 51.4687 39.8702 51.5192 40.3226C51.5336 40.4806 51.5697 40.6673 51.5048 40.7966C51.2525 41.3136 50.7695 42.2616 49.854 43.2885C48.78 44.7032 47.5617 45.9814 46.2642 47.1663C47.086 46.082 47.778 44.8971 48.3258 43.6116C49.1981 41.5793 49.6306 39.4178 49.6306 37.1342C49.6306 34.987 49.2053 32.9188 48.3547 30.9296C47.5041 28.9404 46.3363 27.181 44.8441 25.6514C43.352 24.1218 41.5642 22.901 39.481 21.9818C37.3905 21.0698 34.572 20.6317 34.2476 20.682C35.437 20.0429 36.475 19.1093 37.3401 17.8741C38.2123 16.639 38.6448 15.1596 38.6448 13.4218C38.6448 12.4595 38.4862 11.5116 38.1618 10.578C37.8374 9.64446 37.2752 8.79707 36.475 8.04304C35.6749 7.28902 34.608 6.67143 33.2745 6.19029C31.9409 5.70915 30.2685 5.47217 28.2501 5.47217H24.8766V53.3781C27.6735 53.651 29.9874 53.809 31.8256 53.8592C33.6565 53.9023 36.8715 53.4858 39.0485 52.5882C41.2254 51.6977 43.0925 50.4841 44.6567 48.9545C44.8946 48.7247 45.118 48.4877 45.3343 48.2435L45.4929 48.1358C46.0335 47.7121 46.5814 47.3028 47.1292 46.8934C47.2085 46.8288 48.0375 46.6708 48.7007 46.3189C48.8881 46.2184 49.2341 46.003 49.3927 45.8665C49.6738 45.6152 49.9694 45.3782 50.2577 45.134C50.301 45.0981 50.3514 45.0479 50.4019 45.0335C50.7479 44.9761 51.0939 44.933 51.4399 44.8827C51.6273 44.854 51.8292 44.854 52.0094 44.7893C52.4419 44.6314 52.4779 44.3657 52.1824 44.1143C52.168 43.8917 52.2184 43.6116 52.1391 43.5685C51.894 43.4393 51.6922 43.2669 51.4759 43.1018C51.4255 43.0659 51.2669 43.1161 51.1876 43.1736C50.9209 43.3316 50.7911 43.5901 50.7479 43.8917C50.719 44.0784 50.6758 44.2436 50.4956 44.3513C50.4091 44.4016 50.3298 44.5093 50.3154 44.6026C50.2577 44.9258 49.9982 45.0694 49.7892 45.2633C49.4504 45.5721 49.2485 45.8019 48.6718 46.1179C48.297 46.3261 47.7059 46.4769 47.3238 46.5272C47.3238 46.5272 47.3527 46.4769 47.3815 46.441C48.5998 45.1699 49.7675 43.8486 50.8056 42.4195C51.2236 41.845 51.5985 41.2634 51.8003 40.5668C51.8508 40.3801 52.1391 40.2508 52.3265 40.1C52.4923 39.9707 52.6942 39.8774 52.8456 39.7266C53.1051 39.4752 53.0618 39.267 52.7446 39.0731C53.2276 38.7787 53.6817 38.4555 54.1719 38.2185C54.4747 38.0749 54.8423 38.0821 55.1811 38.0031C55.4406 37.9385 55.7073 37.8666 55.9452 37.7446C56.2119 37.6009 56.2119 37.3783 55.9885 37.1916L55.9957 37.1844ZM32.3229 7.31774C33.7935 7.59063 34.9613 8.28003 35.8335 9.37157C36.7057 10.4703 37.1382 11.8132 37.1382 13.4146C37.1382 15.1525 36.6697 16.639 35.7254 17.867C34.7883 19.1021 33.6493 19.9208 32.3229 20.3373V7.31774ZM38.479 51.3171C36.5039 52.1429 32.914 52.5307 32.3229 52.4804V22.0536C32.8708 22.0105 36.5111 22.3839 38.479 23.1811C40.4469 23.9782 42.1481 25.0625 43.5682 26.4341C44.9883 27.8058 46.0984 29.4144 46.9058 31.2671C47.7059 33.1199 48.1096 35.0732 48.1096 37.127C48.1096 39.1808 47.7059 41.1485 46.9058 43.0228C46.1056 44.8971 44.9883 46.5416 43.5682 47.9563C42.1481 49.371 40.4469 50.4912 38.479 51.3171Z" fill="#41382F"/>
<path d="M19.3765 3.57648C19.6288 3.3395 19.4774 3.0738 19.463 2.80091C19.4485 2.57829 19.3837 2.48494 19.1963 2.43467C18.7421 2.31259 18.4177 2.54239 18.0717 2.79373C17.7113 3.05943 17.2716 3.19588 16.8174 3.1887C16.3849 3.1887 15.9452 3.13125 15.4118 3.08816C15.5199 2.92299 15.5776 2.78655 15.6785 2.67883C15.8083 2.5352 15.9957 2.44185 16.111 2.28386C16.421 1.85299 16.8895 1.72373 17.3581 1.5801C17.6248 1.50111 17.8915 1.40057 18.1222 1.26413C18.4249 1.09178 18.4033 0.818893 18.1006 0.653725C18.0645 0.632182 17.9996 0.617819 17.9996 0.596275C18.0141 0.251577 17.6032 0.294664 17.4878 0.057684C17.459 0.000234253 17.2355 -0.0141282 17.1418 0.0289591C17.0337 0.0792277 16.9328 0.201308 16.8823 0.316208C16.7237 0.68245 16.5579 1.04151 16.4642 1.4293C16.3201 2.02534 15.8227 2.27668 15.419 2.62856C15.3685 2.67165 15.246 2.64292 15.2172 2.64292C15.1379 2.44185 15.1162 2.21205 15.0009 2.14024C14.763 1.98943 14.4819 2.10433 14.3449 2.31259C14.071 2.71474 14.035 2.73628 13.8115 3.16715C13.6745 3.41849 13.2997 3.82782 12.1824 4.32333C10.647 4.99836 9.50081 5.28561 8.09515 6.03964C6.55974 6.86548 5.20454 7.84213 4.03676 8.98394C3.86376 9.15629 3.70517 9.33582 3.53938 9.50817C3.53938 9.13474 3.55379 8.56743 3.77005 8.24427C3.96468 7.94266 4.27464 7.72723 4.51973 7.46152C4.67111 7.29635 4.78645 7.0881 5.04595 7.04501C5.11804 7.03065 5.20454 6.96602 5.24779 6.90139C5.33429 6.75776 5.46405 6.72185 5.61543 6.70031C5.85331 6.66441 6.05514 6.56387 6.1849 6.34843C6.22815 6.2838 6.2714 6.15454 6.24257 6.11863C6.11281 5.94628 5.97585 5.7883 5.86772 5.5944C5.83168 5.52977 5.60822 5.57286 5.43521 5.5585C5.23338 5.3287 5.02433 5.35742 4.89458 5.69494C4.84412 5.83138 4.84412 5.99655 4.82249 6.14736C4.78645 6.42024 4.75041 6.69313 4.69995 6.96602C4.69995 7.0091 4.64949 7.04501 4.62065 7.08092C4.42602 7.31071 4.2386 7.54051 4.03676 7.76313C3.92143 7.89239 3.74842 8.07192 3.62588 8.19401C3.60425 8.18682 3.55379 7.5477 3.51775 7.27481C3.40241 6.37716 3.44567 5.50105 3.77005 4.64648C3.79888 4.57467 3.84213 4.48132 3.8998 4.44541C4.08722 4.33051 4.29627 4.24433 4.46927 4.12225C4.59903 4.0289 4.70715 3.89245 4.80086 3.76319C4.8297 3.72011 4.80087 3.56212 4.77924 3.56212C4.58461 3.51185 4.51973 3.21024 4.26023 3.3036C4.2386 3.31078 4.19535 3.26769 4.16652 3.25333C3.93584 3.10252 3.7268 3.1887 3.66913 3.4544C3.6475 3.55494 3.66913 3.66984 3.6475 3.77756C3.59704 4.12225 3.66192 4.47413 3.52496 4.82601C3.33033 5.32152 3.25824 5.85293 3.3015 6.38434C3.34475 6.96602 3.41683 7.54051 3.46008 8.12219C3.48171 8.4238 3.39521 9.29273 3.35916 9.69488C2.50856 10.65 1.80933 11.6913 1.27591 12.8187C0.612723 14.2334 0.281132 15.7199 0.281132 17.2711C0.281132 19.1454 0.547846 20.7683 1.07407 22.1399C1.60029 23.5115 2.25626 24.7539 3.03478 25.8742C3.8133 26.9944 4.64949 28.0429 5.54334 29.0267C6.4372 30.0105 7.27338 31.059 8.0519 32.1793C8.83042 33.2995 9.48639 34.5347 10.0126 35.8776C10.5388 37.2277 10.8056 38.8147 10.8056 40.6388C10.8056 42.6495 10.5316 44.3658 9.97657 45.7805C9.42873 47.1952 8.65742 48.3945 7.66985 49.3783C6.68229 50.3621 5.53613 51.2095 4.23139 51.9133C2.92665 52.6242 1.51379 53.2705 0 53.8666L0.48297 55.0299C2.13372 54.3477 3.93584 53.5219 5.88214 52.5596C7.82844 51.5973 9.65219 50.4555 11.3534 49.1341C13.0474 47.8128 14.4747 46.2473 15.6208 44.4376C16.767 42.6351 17.3437 40.5239 17.3437 38.0966C17.3437 35.9494 17.077 34.111 16.5507 32.5814C16.0245 31.0518 15.3541 29.6946 14.554 28.5025C13.7538 27.3176 12.8888 26.2332 11.9733 25.2494C11.0578 24.2656 5.98306 20.3518 5.24779 15.7343C4.88016 13.4363 5.95423 10.2335 6.96342 8.8834C7.21571 8.54588 7.59777 8.14374 8.0519 7.72004C8.8953 7.72004 9.73869 7.65541 10.5677 7.45434C10.6758 7.42561 10.8056 7.51179 10.9137 7.48306C11.2885 7.37535 11.6417 7.56924 12.0094 7.54051C12.1391 7.53333 12.2905 7.49743 12.3986 7.42561C12.4635 7.38253 12.514 7.23172 12.4923 7.15991C12.4563 7.04501 12.4419 6.98038 12.4995 6.86548C12.55 6.7793 12.5356 6.55669 12.4995 6.54232C12.2328 6.44897 12.3338 5.98219 11.995 6.03246C11.8075 6.06118 11.6201 6.18326 11.4687 6.30534C11.2525 6.47769 11.1444 6.77212 10.8416 6.8583C10.7695 6.87984 10.6974 6.98038 10.6686 7.06655C10.6037 7.25327 10.4595 7.33226 10.2865 7.34662C9.72427 7.49743 9.22689 7.5477 8.23932 7.55488C9.38548 6.5136 10.9786 5.3646 12.4707 4.64648C12.9032 4.43823 13.2492 4.22279 13.761 3.90682C13.9413 3.7991 14.2224 3.90682 14.4747 3.89246C14.6981 3.89246 14.9288 3.92836 15.1523 3.89246C15.5271 3.83501 15.628 3.63393 15.4767 3.26769C16.075 3.31796 16.6661 3.32514 17.2355 3.43286C17.5815 3.49749 17.8987 3.74165 18.2303 3.87809C18.497 3.98581 18.7637 4.09353 19.0449 4.13662C19.362 4.18689 19.5062 3.99299 19.4341 3.6842C19.4269 3.64829 19.3837 3.58366 19.3909 3.57648H19.3765Z" fill="#41382F"/>
</g>
<g clip-path="url(#clip1_81_931)">
<path d="M114.822 10.3043C114.34 9.78856 113.767 9.53641 113.091 9.53641C112.415 9.53641 111.842 9.78856 111.383 10.3043C110.913 10.8201 110.684 11.3932 110.684 12.035C110.684 12.1955 110.695 12.3101 110.73 12.3674H106.546V6.78564H101.973V9.58226C101.973 10.5106 101.985 11.439 102.019 12.3789H93.8814V6.78564H89.5489V12.3674H82.523L82.7178 14.3388H89.5489V21.7085H95.6579V24.8834H83.4284V49.1474H87.4285V26.7172H95.761V41.7318C94.867 39.7719 94.2825 37.7661 94.0304 35.6916C93.7782 33.6171 93.6292 31.5082 93.5948 29.3648H88.8727V30.7632H90.7065C90.7409 31.5655 90.8326 32.4136 90.993 33.3191L89.7896 33.0784C89.6635 34.5569 89.4801 36.0125 89.2394 37.4338C88.9987 38.8665 88.5861 40.2648 88.0131 41.6401C87.9787 41.7662 87.9328 41.9038 87.8641 42.0528C87.7953 42.2018 87.7724 42.3508 87.7724 42.5112C87.7724 42.7978 87.887 42.9468 88.1047 42.9468C88.4257 42.9468 88.781 42.6946 89.1592 42.2018C89.5489 41.7089 89.9157 41.09 90.2939 40.3679C90.6607 39.6458 90.9816 38.9696 91.2567 38.3163C91.5317 37.6745 91.7151 37.2045 91.8068 36.918C92.1621 37.9725 92.6206 39.004 93.1822 40.0011C93.7438 40.9983 94.4544 41.8579 95.3255 42.6029C95.3943 42.6373 95.4516 42.6717 95.5204 42.729C95.5891 42.7748 95.6693 42.8207 95.761 42.8436V49.8237H100.094V26.7172H108.518V34.0297C108.518 36.471 108.529 38.9238 108.564 41.3995C107.601 39.5083 106.97 37.5369 106.684 35.5082C106.397 33.4795 106.237 31.4279 106.202 29.3648H101.48V30.7632H103.314C103.349 31.5655 103.44 32.4136 103.601 33.3191L102.397 33.0784C102.271 34.5569 102.088 36.0125 101.847 37.4338C101.606 38.8665 101.194 40.2648 100.621 41.6401C100.46 41.9611 100.38 42.2476 100.38 42.5112C100.38 42.7978 100.495 42.9468 100.712 42.9468C101.033 42.9468 101.389 42.6946 101.79 42.1788C102.191 41.6631 102.581 41.0441 102.947 40.2991C103.314 39.5656 103.635 38.8665 103.91 38.2017C104.185 37.5484 104.369 37.067 104.46 36.7805C104.816 37.8693 105.32 38.9581 105.973 40.0241C106.627 41.1015 107.406 42.0069 108.311 42.7404C108.38 42.8092 108.46 42.8321 108.552 42.8321C108.552 43.3135 108.506 43.8293 108.426 44.368C108.346 44.9067 108.162 45.3766 107.876 45.7434C107.589 46.1101 107.108 46.2935 106.432 46.2935C105.595 46.2935 104.793 46.1445 104.025 45.858C103.83 45.7892 103.601 45.709 103.326 45.5944C103.051 45.4798 102.821 45.4224 102.626 45.4224C102.5 45.4224 102.432 45.4683 102.432 45.5714C102.432 45.6975 102.512 45.8465 102.672 46.007C103.062 46.4884 103.578 47.0041 104.243 47.5428C104.896 48.093 105.618 48.5514 106.386 48.9411C107.154 49.3308 107.864 49.5142 108.506 49.5142C109.538 49.5142 110.34 49.2735 110.936 48.7921C111.532 48.3108 111.956 47.6918 112.208 46.9354C112.46 46.1789 112.621 45.3651 112.69 44.5055C112.758 43.6345 112.781 42.8207 112.781 42.0528V24.8719H100.22V21.6971C101.538 21.6971 102.661 21.5825 103.589 21.3647C104.518 21.1355 105.24 20.6541 105.755 19.9206C106.271 19.187 106.523 18.0752 106.523 16.5967V14.3388H112.541C113.274 14.3388 113.962 14.1669 114.581 13.8345C115.211 13.5021 115.521 12.8946 115.521 12.0236C115.521 11.3817 115.28 10.8086 114.799 10.2929L114.822 10.3043ZM102.019 17.2844C102.019 18.2128 101.744 18.9005 101.205 19.336C100.655 19.7716 99.933 19.9893 99.039 19.9893H93.8928V14.3617H102.03V17.2959L102.019 17.2844Z" fill="#41382F"/>
<path d="M81.7436 32.0583C81.7436 32.2188 81.7321 32.3449 81.6978 32.448C81.3425 33.9609 80.884 35.5656 80.3224 37.2619C79.7608 38.9582 79.1304 40.5169 78.2593 42.2132C77.4341 43.7949 76.7235 44.9869 75.9555 46.3394C75.8295 46.5342 75.6805 46.7291 75.52 46.9468C75.3595 47.1532 75.1532 47.2563 74.8896 47.2563C74.7635 47.2563 73.8008 46.6374 73.1131 46.0528C71.9096 45.0098 71.1761 44.07 71.0385 43.9095C72.5744 42.3966 74.0415 40.8149 75.4398 39.1645C76.8381 37.514 78.1218 35.8062 79.3138 34.0412C79.5659 33.6859 79.8066 33.3306 80.0129 32.9523C80.2192 32.5856 80.437 32.2188 80.6662 31.8749C80.735 31.7832 80.8152 31.6801 80.9069 31.5655C80.9986 31.4509 81.1132 31.3936 81.2393 31.3936C81.3998 31.3936 81.5258 31.4623 81.6061 31.6113C81.6863 31.7603 81.7207 31.9093 81.7207 32.0698L81.7436 32.0583Z" fill="#41382F"/>
<path d="M81.3654 26.9576C81.3654 27.1868 81.2737 27.3473 81.1018 27.439C80.9298 27.5307 80.735 27.588 80.5516 27.588C80.4599 27.588 80.3109 27.5536 80.1161 27.4963C78.6719 27.0149 77.6862 26.4418 75.9326 25.7541C74.4999 25.1925 71.7148 24.1954 72.6317 22.9002C73.1245 22.2011 73.583 21.479 74.0988 20.8027C74.4197 20.3901 74.775 20.1724 75.1532 20.1724C75.2449 20.1724 75.3366 20.1724 75.4168 20.1953C75.4971 20.2067 75.5888 20.2411 75.6805 20.2641C75.9326 20.3557 76.3567 20.6996 76.9527 21.2956C77.5487 21.8916 78.1905 22.5907 78.8782 23.3931C79.5659 24.1954 80.1504 24.9289 80.6318 25.6051C81.1132 26.2814 81.3539 26.7284 81.3539 26.9576H81.3654Z" fill="#41382F"/>
<path d="M168.347 47.2217C168.347 47.7719 168.129 48.2533 167.694 48.6888C167.258 49.1243 166.777 49.3421 166.227 49.3421C165.619 49.3421 165 49.2504 164.37 49.0556C163.739 48.8607 163.143 48.6544 162.559 48.4252C158.777 46.8206 155.59 44.62 153 41.8348C150.421 39.0382 148.209 35.8519 146.375 32.253C145.481 34.5682 144.358 36.6771 143.005 38.6027C141.653 40.5282 139.991 42.2474 137.997 43.7489C137.034 44.4824 135.876 45.193 134.535 45.8693C133.183 46.5455 131.819 47.13 130.421 47.6229C129.022 48.1157 127.727 48.5169 126.547 48.8034C126.478 48.8034 126.409 48.8034 126.329 48.8263C126.249 48.8378 126.157 48.8493 126.065 48.8493C125.939 48.8493 125.802 48.8263 125.653 48.7805C125.504 48.7346 125.435 48.6315 125.435 48.471C125.435 48.2762 125.538 48.1272 125.744 48.0126C125.951 47.898 126.123 47.8292 126.249 47.7948C127.658 47.2217 129.011 46.534 130.295 45.7432C131.578 44.9523 132.77 44.0698 133.859 43.0727C136.335 40.8606 138.329 38.3849 139.854 35.657C141.378 32.9292 142.352 29.9148 142.765 26.6024H128.61V24.4821H143.005C143.074 23.3932 143.109 22.3044 143.12 21.2384C143.132 20.1611 143.143 19.0837 143.143 17.9948V15.7025C143.143 14.9461 143.132 14.2011 143.097 13.4675H127.062V11.3013H160.565C160.53 11.2096 160.519 11.0606 160.519 10.8658C160.519 10.1322 160.794 9.49039 161.332 8.94023C161.883 8.39008 162.536 8.12646 163.304 8.12646C164.072 8.12646 164.691 8.40154 165.252 8.94023C165.814 9.49039 166.1 10.1322 166.1 10.8658C166.1 11.5076 165.837 12.1036 165.31 12.6423C164.782 13.1925 164.198 13.4561 163.556 13.4561H148.587C148.553 15.3128 148.518 17.1581 148.461 18.992C148.415 20.8258 148.324 22.6482 148.198 24.4821H159.12C159.086 24.3904 159.075 24.2414 159.075 24.0465C159.075 23.313 159.338 22.6597 159.865 22.0981C160.393 21.5364 161.023 21.2614 161.768 21.2614C162.513 21.2614 163.132 21.5135 163.648 22.0293C164.163 22.5451 164.416 23.164 164.416 23.909C164.416 24.654 164.129 25.2844 163.579 25.8116C163.017 26.3388 162.364 26.6024 161.63 26.6024H148.92C149.493 28.2987 150.318 30.1441 151.372 32.1384C152.427 34.1327 153.653 36.0811 155.029 38.0067C156.404 39.9322 157.871 41.7087 159.407 43.3248C160.943 44.9409 162.49 46.2475 164.026 47.2447C163.992 47.2103 163.98 47.153 163.98 47.0498C163.98 46.4767 164.198 45.9839 164.633 45.5827C165.069 45.1816 165.573 44.9867 166.146 44.9867C166.719 44.9867 167.224 45.2045 167.659 45.64C168.095 46.0756 168.312 46.5913 168.312 47.2103L168.347 47.2217Z" fill="#41382F"/>
<path d="M220.703 44.2187C220.176 43.6915 219.568 43.4279 218.892 43.4279C218.216 43.4279 217.574 43.6915 217.058 44.2187C216.543 44.7459 216.29 45.3649 216.29 46.0755C216.29 46.1099 216.29 46.1557 216.313 46.2245C216.325 46.2933 216.336 46.3506 216.336 46.4193H201.608V40.4937H210.755C211.465 40.4937 212.107 40.3447 212.68 40.0582C213.253 39.7716 213.551 39.2215 213.551 38.4192C213.551 37.8117 213.322 37.3074 212.852 36.9063C212.382 36.5051 211.866 36.2988 211.282 36.2988C210.697 36.2988 210.193 36.5166 209.746 36.9521C209.299 37.3876 209.058 37.8919 209.024 38.465H201.608V33.3188H215.087C215.729 33.3188 216.336 33.0666 216.921 32.5509C217.505 32.0351 217.792 31.462 217.792 30.8202C217.792 30.1096 217.54 29.5021 217.024 28.9863C216.508 28.4706 215.901 28.2184 215.19 28.2184C214.353 28.2184 213.723 28.5279 213.288 29.1353C212.852 29.7428 212.634 30.4305 212.634 31.2099H201.608V25.0436C202.502 25.0436 203.408 25.0436 204.302 25.0207C205.196 25.0092 206.101 24.9977 206.995 24.9977C208.669 24.9977 210.113 24.8029 211.351 24.4247C212.588 24.035 213.551 23.3473 214.262 22.3501C214.972 21.353 215.316 19.9317 215.316 18.0635V8.47021H183.74V25.0321H197.024V31.1984H187.488C187.579 31.038 187.751 30.74 187.992 30.3044C188.233 29.8689 188.462 29.4333 188.668 29.0093C188.874 28.5737 188.978 28.3101 188.978 28.2184C188.978 28.058 188.932 27.9433 188.852 27.886C188.771 27.8173 188.68 27.7714 188.588 27.737C188.393 27.6683 188.21 27.611 188.038 27.5651C187.866 27.5193 187.671 27.4734 187.488 27.4505C186.937 27.29 186.387 27.141 185.826 26.992C185.264 26.843 184.714 26.717 184.164 26.5794C183.808 28.5737 183.235 30.5222 182.456 32.4477C181.665 34.3733 180.725 36.1842 179.636 37.8919C179.545 38.0524 179.327 38.3619 179.006 38.8089C178.685 39.2559 178.376 39.6914 178.066 40.104C177.757 40.5166 177.608 40.7803 177.608 40.8719C177.608 40.998 177.688 41.0668 177.848 41.0668C178.422 41.0668 179.121 40.7573 179.946 40.1499C180.76 39.5424 181.608 38.7974 182.467 37.9149C183.339 37.0323 184.106 36.1613 184.806 35.3131C185.505 34.465 185.986 33.8002 186.273 33.3188H197.012V38.465H187.052V40.4823H197.012V46.4079H178.089V48.5741H218.858C219.534 48.5741 220.13 48.3334 220.669 47.852C221.207 47.3706 221.46 46.7746 221.46 46.0755C221.46 45.3763 221.196 44.7459 220.669 44.2187H220.703ZM188.038 15.7941V10.5448H210.617V18.1552C210.617 19.691 210.216 20.883 209.414 21.7197C208.611 22.5564 207.419 22.969 205.849 22.969H188.038V17.8687" fill="#41382F"/>
<path d="M248.302 20.7454C246.858 23.0835 245.242 25.33 243.443 27.4847V49.2387H238.961V32.1954C238.549 32.5851 237.953 33.078 237.185 33.6854C236.417 34.2929 235.592 34.9003 234.709 35.4963C233.827 36.0923 232.967 36.5852 232.13 36.9863C231.294 37.3875 230.606 37.5938 230.056 37.5938C229.861 37.5938 229.769 37.525 229.769 37.399C229.769 37.2729 229.826 37.1468 229.941 37.0093C230.056 36.8832 230.159 36.78 230.251 36.7227C231.947 35.1181 233.62 33.3301 235.259 31.3587C236.898 29.3874 238.411 27.3243 239.809 25.1695C241.208 23.0147 242.388 20.9058 243.351 18.8198L248.314 20.7454H248.302Z" fill="#41382F"/>
<path d="M272.807 12.1838C272.807 12.8944 272.567 13.5133 272.085 14.0635C271.604 14.6136 270.996 14.8773 270.251 14.8773H258.698C258.538 15.1982 258.285 15.691 257.93 16.3443C257.575 16.9976 257.197 17.6166 256.773 18.1782C256.36 18.7398 255.936 19.0149 255.523 19.0149C255.294 19.0149 255.134 18.9117 255.042 18.7054C254.95 18.4991 254.893 18.2928 254.893 18.0979C254.893 17.5478 254.939 17.0091 255.019 16.4589C255.099 15.9088 255.168 15.3816 255.237 14.8658H247.821L247.867 18.0406L243.202 18.1896L243.156 14.8658H231.89V12.9861H243.11L243.019 6.63642L247.638 6.54473L247.787 12.9976H255.443L256.314 5.73096C258.045 5.9258 259.764 6.1665 261.46 6.45303C261.69 6.48742 261.85 6.5218 261.965 6.57911C262.079 6.62496 262.137 6.77396 262.137 7.03757C262.137 7.2668 262.045 7.64503 261.85 8.19519C261.655 8.74534 261.414 9.32988 261.128 9.97172C260.841 10.6136 260.566 11.2096 260.314 11.7826C260.062 12.3443 259.867 12.7569 259.741 13.009H267.638C267.546 12.7569 267.489 12.4818 267.489 12.1953C267.489 11.4273 267.741 10.7626 268.257 10.2239C268.773 9.67372 269.415 9.41011 270.183 9.41011C270.95 9.41011 271.546 9.69665 272.062 10.2583C272.578 10.8199 272.83 11.4732 272.83 12.2067L272.807 12.1838Z" fill="#41382F"/>
<path d="M275.157 40.5741C275.157 41.216 275.088 41.9724 274.492 43.1186C273.85 44.3679 272.28 46.2361 269.609 47.8522C268.417 48.5742 267.214 49.09 265.701 49.388C264.337 49.6516 263.076 49.7319 261.884 49.7319C260.188 49.7319 258.515 49.4797 256.876 48.9869C255.237 48.494 253.896 47.6573 252.853 46.4883C251.81 45.3192 251.294 43.7375 251.294 41.7432C251.294 38.1213 251.294 34.488 251.271 30.8433C251.26 27.1985 251.248 23.5652 251.248 19.9434H255.913C255.913 22.866 255.913 25.7887 255.89 28.7343C255.879 31.6685 255.867 34.6141 255.867 37.5712C255.867 39.2446 255.936 39.0612 256.085 40.2303C256.234 41.3993 256.543 42.3392 257.025 43.0498C257.506 43.7604 258.274 44.2647 259.34 44.5856C260.406 44.9066 262.194 45.0326 264.028 45.0326C265.541 45.0326 268.75 44.62 270.962 42.8549C270.091 42.3392 269.667 41.5827 269.667 40.597C269.667 39.9208 269.907 39.3248 270.389 38.7976C270.87 38.2703 271.466 38.0067 272.165 38.0067C272.865 38.0067 273.919 38.2589 274.412 38.7746C274.905 39.2904 275.157 39.8979 275.157 40.6085V40.5741Z" fill="#41382F"/>
<path d="M304.384 16.4705C304.384 16.8258 304.212 16.9978 303.857 16.9978C303.341 16.9978 301.748 15.9433 300.693 15.1983C300.017 14.7169 299.146 14.098 298.046 12.9289C297.438 12.2871 296.739 11.3931 296.441 10.9805C296.28 11.0492 294.619 13.6739 294.458 13.8688C293.942 14.6023 293.449 15.3015 292.968 15.9433C291.81 17.4218 290.538 18.8202 289.163 20.1497C287.787 21.4792 286.32 22.7056 284.785 23.8288C284.658 23.9205 284.395 24.0925 284.017 24.3331C283.638 24.5738 283.363 24.6885 283.203 24.6885C282.916 24.6885 282.767 24.5738 282.767 24.3561L282.813 24.2644C283.134 23.9091 283.444 23.5079 283.73 23.0609C284.051 22.6483 284.36 22.2242 284.67 21.8116C284.979 21.399 285.266 20.9749 285.564 20.5623C286.492 19.1869 287.421 17.674 288.361 16.035C289.289 14.396 290.137 12.7341 290.916 11.0263C291.684 9.33001 292.292 7.66809 292.75 6.06348L297.851 6.8314C297.621 7.43886 297.381 8.04632 297.106 8.63086C296.831 9.22686 299.364 7.95463 299.581 7.95463C299.834 7.95463 300.028 8.0234 300.154 8.14947C300.281 8.27555 300.407 8.43601 300.544 8.63086C300.796 9.04347 301.026 9.50193 301.22 9.98332C301.415 10.4647 301.576 10.9461 301.793 11.3816C302.206 12.2069 303.639 14.6596 303.96 15.3015L304.246 15.8745C304.338 16.0694 304.395 16.2642 304.395 16.4476L304.384 16.4705Z" fill="#41382F"/>
<path d="M305.346 45.7778C305.094 44.7462 304.613 43.6803 303.925 42.5571C303.238 41.4338 302.435 40.3908 301.541 39.4281C300.647 38.4653 299.73 37.7318 298.802 37.216C298.389 37.6286 297.954 38.0298 297.53 38.4195C297.106 38.8092 296.659 39.2103 296.2 39.6229C296.682 39.9438 297.151 40.2762 297.598 40.6086C298.045 40.941 298.481 41.2848 298.894 41.6402C297.988 42.4768 296.945 43.1072 295.765 43.5428C294.573 43.9783 293.369 44.2534 292.154 44.3909V35.5312H296.682C298.836 35.5312 300.384 35.0842 301.323 34.1787C302.275 33.2847 302.745 31.7374 302.745 29.5597V21.1355H297.495C297.564 20.975 297.69 20.6656 297.885 20.2186C298.08 19.7716 298.286 19.2902 298.515 18.7744C298.745 18.2586 298.928 17.8002 299.088 17.3761C299.249 16.9635 299.329 16.6999 299.329 16.6082C299.329 16.356 299.237 16.1841 299.066 16.1039C298.894 16.0236 298.71 15.9893 298.515 15.9893H293.988C294.309 16.7916 294.55 17.6397 294.71 18.5223C294.871 19.4048 295.043 20.2759 295.237 21.1469H288.212C288.212 25.7316 288.212 30.3276 288.189 34.9122C288.177 39.4968 288.166 44.0929 288.166 48.6775C289.679 48.5515 290.962 48.3795 292.04 48.1732C293.117 47.9669 294.08 47.646 294.928 47.2334C295.776 46.8208 296.601 46.2248 297.404 45.4798C298.206 44.7233 299.077 43.7376 300.005 42.5227C300.166 42.6488 300.498 42.9238 300.991 43.3365C301.484 43.7491 302.023 44.2075 302.584 44.6889C303.146 45.1703 303.662 45.5829 304.12 45.9382C304.59 46.2935 304.888 46.4655 305.014 46.4655C305.266 46.4655 305.404 46.3165 305.404 46.0299C305.404 45.9382 305.392 45.858 305.358 45.7892L305.346 45.7778ZM292.154 29.6514H296.005C296.487 29.6514 296.911 29.5253 297.278 29.2617C297.644 29.0096 297.828 28.6199 297.828 28.1041C297.828 27.6571 297.656 27.2559 297.323 26.9236C296.991 26.5912 296.59 26.4192 296.143 26.4192C295.73 26.4192 295.375 26.5682 295.088 26.8548C294.802 27.1413 294.618 27.5081 294.561 27.9666H292.154V22.8662H298.894V30.2359C298.894 31.0382 298.722 31.8291 298.389 32.597C298.057 33.3649 297.404 33.7546 296.441 33.7546H292.154V29.6629V29.6514Z" fill="#41382F"/>
<path d="M328.717 12.3442C328.247 11.9086 327.696 11.6908 327.055 11.6908C326.321 11.6908 325.737 11.9659 325.324 12.5046C324.911 13.0548 324.694 13.6737 324.694 14.3843H311.501C311.627 14.2582 311.891 13.8685 312.269 13.2267C312.659 12.5848 313.06 11.8628 313.496 11.0605C313.931 10.2582 314.298 9.52462 314.607 8.84839C314.917 8.17216 315.066 7.75955 315.066 7.59909C315.066 7.40424 315.02 7.28962 314.917 7.23232C314.814 7.17501 314.688 7.14062 314.527 7.1177C313.759 6.88847 312.991 6.68216 312.212 6.46439C311.444 6.25809 310.653 6.05178 309.851 5.85693C309.175 8.65355 308.338 11.3585 307.352 13.9717C306.355 16.5849 305.106 19.1294 303.593 21.6051C303.524 21.7311 303.455 21.8572 303.375 21.9604C303.295 22.075 303.249 22.2125 303.249 22.373C303.249 22.5335 303.329 22.6137 303.49 22.6137C303.65 22.6137 303.811 22.5678 303.971 22.4647C304.132 22.373 304.281 22.2698 304.407 22.1781C306.722 20.5735 308.739 18.6136 310.47 16.3098H313.988V23.5306H306.527V43.9436H310.527V25.4561H313.988V50.0526H318.275V41.0553C318.848 41.6971 319.547 42.316 320.373 42.912C321.186 43.508 322.046 43.806 322.951 43.806C323.949 43.806 324.682 43.5195 325.163 42.9579C325.645 42.3963 325.966 41.6971 326.126 40.8604C326.287 40.0237 326.367 39.2214 326.367 38.4535V23.5306H318.275V16.3098H326.413C327.215 16.3098 327.914 16.1379 328.51 15.8055C329.106 15.4732 329.404 14.8542 329.404 13.9488C329.404 13.3069 329.175 12.7682 328.705 12.3327L328.717 12.3442ZM322.332 25.4676V37.4564C322.332 37.7773 322.321 38.2128 322.287 38.7515C322.252 39.3017 322.138 39.783 321.931 40.2186C321.725 40.6541 321.381 40.8719 320.9 40.8719C320.544 40.8719 320.109 40.8146 319.605 40.7C319.089 40.5854 318.653 40.4707 318.309 40.3332V25.4561H322.355L322.332 25.4676Z" fill="#41382F"/>
<path d="M165.974 49.342C167.576 49.342 168.874 48.0437 168.874 46.4422C168.874 44.8407 167.576 43.5425 165.974 43.5425C164.373 43.5425 163.075 44.8407 163.075 46.4422C163.075 48.0437 164.373 49.342 165.974 49.342Z" fill="#CC8B6E"/>
<path d="M199.568 19.657C201.17 19.657 202.468 18.3587 202.468 16.7572C202.468 15.1557 201.17 13.8574 199.568 13.8574C197.967 13.8574 196.668 15.1557 196.668 16.7572C196.668 18.3587 197.967 19.657 199.568 19.657Z" fill="#CC8B6E"/>
<path d="M263.787 34.3274C265.388 34.3274 266.687 33.0291 266.687 31.4276C266.687 29.8261 265.388 28.5278 263.787 28.5278C262.185 28.5278 260.887 29.8261 260.887 31.4276C260.887 33.0291 262.185 34.3274 263.787 34.3274Z" fill="#CC8B6E"/>
<path d="M327.112 16.2639C328.713 16.2639 330.012 14.9656 330.012 13.3641C330.012 11.7626 328.713 10.4644 327.112 10.4644C325.51 10.4644 324.212 11.7626 324.212 13.3641C324.212 14.9656 325.51 16.2639 327.112 16.2639Z" fill="#CC8B6E"/>
<path d="M270.71 28.3102C271.868 28.3102 272.807 27.3711 272.807 26.2127C272.807 25.0543 271.868 24.1152 270.71 24.1152C269.551 24.1152 268.612 25.0543 268.612 26.2127C268.612 27.3711 269.551 28.3102 270.71 28.3102Z" fill="#CC8B6E"/>
<path d="M75.8295 14.3615C77.4309 14.3615 78.7292 13.0633 78.7292 11.4618C78.7292 9.86028 77.4309 8.56201 75.8295 8.56201C74.228 8.56201 72.9297 9.86028 72.9297 11.4618C72.9297 13.0633 74.228 14.3615 75.8295 14.3615Z" fill="#CC8B6E"/>
</g>
<defs>
<clipPath id="clip0_81_931">
<rect width="56.1615" height="55.0153" fill="white"/>
</clipPath>
<clipPath id="clip1_81_931">
<rect width="258.95" height="44.3332" fill="white" transform="translate(71.0615 5.73096)"/>
</clipPath>
</defs>
</svg>
